<svg width="111" height="33" viewBox="0 0 111 33" fill="none" xmlns="http://www.w3.org/2000/svg">
<path fill-rule="evenodd" clip-rule="evenodd" d="M5.15418 28.5468L3.28278 29.6863C1.84003 30.5541 0 29.5191 0 27.8359V5.17001C0 3.47634 1.84003 2.44133 3.28278 3.31952L9.53471 7.11459C9.25243 7.06231 8.9597 7.03095 8.65651 7.03095C5.68737 7.03095 3.27233 9.37281 3.12596 12.3001H5.48873C5.83374 12.3001 6.17874 12.5824 6.19965 12.9379C6.22056 13.3247 5.90692 13.6488 5.52009 13.6488H3.12596V14.9661H5.52009C5.90692 14.9661 6.22056 15.2797 6.19965 15.677C6.17874 16.0429 5.85465 16.3147 5.48873 16.3147H3.12596V17.6216H5.48873C5.83374 17.6216 6.17874 17.9143 6.19965 18.2698C6.22056 18.6566 5.90692 18.9807 5.52009 18.9807H3.12596C3.27233 21.908 5.68737 24.2394 8.65651 24.2394C8.75061 24.2394 8.8447 24.229 8.94925 24.229L7.83059 25.4313V26.9263L7.7365 26.9786H6.79557C5.91738 26.9786 5.196 27.679 5.15418 28.5468ZM21.9654 18.3534L9.48244 25.9226V24.1767C12.0543 23.7899 14.0512 21.6257 14.1766 18.9807H11.7825C11.3957 18.9807 11.0925 18.6566 11.1029 18.2698C11.1238 17.9143 11.4688 17.6216 11.8243 17.6216H14.1871V16.3147H11.7825C11.3957 16.3147 11.0925 15.9907 11.1029 15.6038C11.1238 15.2379 11.4584 14.9661 11.8243 14.9661H14.1871V13.6488H11.8243C11.4688 13.6488 11.1238 13.3665 11.1029 13.0111C11.0925 12.6242 11.3957 12.3001 11.7825 12.3001H14.1766C14.1243 11.1606 13.7271 10.1151 13.0893 9.25781L21.9654 14.6524C23.3559 15.4888 23.3559 17.5066 21.9654 18.3534Z" fill="url(#paint0_linear_0_3)"/>
<path style="mix-blend-mode:multiply" fill-rule="evenodd" clip-rule="evenodd" d="M8.94925 24.229L7.83059 25.4313V26.9263L7.7365 26.9786H6.79557C5.91738 26.9786 5.196 27.679 5.15418 28.5468L3.28278 29.6863C1.84003 30.5541 0 29.5191 0 27.8359V5.17001C0 3.47634 1.84003 2.44133 3.28278 3.31952L9.53471 7.11459C9.25243 7.06231 8.9597 7.03095 8.65651 7.03095C5.68737 7.03095 3.27233 9.37281 3.12596 12.3001H5.48873C5.83374 12.3001 6.17874 12.5824 6.19965 12.9379C6.22056 13.3247 5.90692 13.6488 5.52009 13.6488H3.12596V14.9661H5.52009C5.90692 14.9661 6.22056 15.2797 6.19965 15.677C6.17874 16.0429 5.85465 16.3147 5.48873 16.3147H3.12596V17.6216H5.48873C5.83374 17.6216 6.17874 17.9143 6.19965 18.2698C6.22056 18.6566 5.90692 18.9807 5.52009 18.9807H3.12596C3.27233 21.908 5.68737 24.2394 8.65651 24.2394C8.75061 24.2394 8.8447 24.229 8.94925 24.229ZM16.163 21.8662L9.48244 25.9226V24.1767C12.0543 23.7899 14.0512 21.6257 14.1766 18.9807H11.7825C11.3957 18.9807 11.0925 18.6566 11.1029 18.2698C11.1238 17.9143 11.4688 17.6216 11.8243 17.6216H14.1871V16.3147H11.7825C11.3957 16.3147 11.0925 15.9907 11.1029 15.6038C11.1238 15.2379 11.4584 14.9661 11.8243 14.9661H14.1871V13.8788C14.6784 15.0497 15.0966 16.2625 15.4312 17.517C15.8285 19.0225 16.0689 20.4757 16.163 21.8662ZM11.7825 12.3001H13.4552C13.6783 12.7392 13.8874 13.1888 14.0825 13.6488H11.8243C11.4688 13.6488 11.1238 13.3665 11.1029 13.0111C11.0925 12.6242 11.3957 12.3001 11.7825 12.3001Z" fill="url(#paint1_linear_0_3)"/>
<path style="mix-blend-mode:screen" fill-rule="evenodd" clip-rule="evenodd" d="M3.12596 14.4956V13.6488H5.52009C5.90692 13.6488 6.22056 13.3247 6.19965 12.9379C6.17874 12.5824 5.83374 12.3001 5.48873 12.3001H3.12596C3.27233 9.37281 5.68737 7.03095 8.65651 7.03095C8.9597 7.03095 9.25243 7.06231 9.53471 7.11459L3.28278 3.31952C1.84003 2.44133 0 3.47634 0 5.17001V11.9238C0.920016 12.8542 1.96549 13.7115 3.12596 14.4956ZM6.19965 15.677C6.22056 15.2797 5.90692 14.9661 5.52009 14.9661H3.84734C4.52341 15.3843 5.23085 15.7746 5.96965 16.137C6.10556 16.022 6.1892 15.8547 6.19965 15.677ZM21.9654 14.6524L13.0893 9.25781C13.7271 10.1151 14.1243 11.1606 14.1766 12.3001H11.7825C11.3957 12.3001 11.0925 12.6242 11.1029 13.0111C11.1238 13.3665 11.4688 13.6488 11.8243 13.6488H14.1871V14.9661H11.8243C11.4584 14.9661 11.1238 15.2379 11.1029 15.6038C11.0925 15.9907 11.3957 16.3147 11.7825 16.3147H14.1871V17.6216H11.8243C11.5525 17.6216 11.3016 17.7889 11.1761 18.0189C12.2007 18.2698 13.2566 18.4684 14.3334 18.5939C17.083 18.9284 19.6862 18.803 22.0386 18.3011C23.3454 17.4334 23.3245 15.4784 21.9654 14.6524Z" fill="url(#paint2_linear_0_3)"/>
<path style="mix-blend-mode:screen" fill-rule="evenodd" clip-rule="evenodd" d="M21.9654 18.3534L9.48244 25.9226V24.1767C12.0543 23.7899 14.0512 21.6258 14.1766 18.9807H11.7825C11.3957 18.9807 11.0925 18.6566 11.1029 18.2698C11.1238 17.9143 11.4688 17.6216 11.8243 17.6216H14.1871V16.3148H11.7825C11.3957 16.3148 11.0925 15.9907 11.1029 15.6038C11.1238 15.2379 11.4584 14.9661 11.8243 14.9661H14.1871V13.6488H11.8243C11.4688 13.6488 11.1238 13.3665 11.1029 13.0111C11.0925 12.6242 11.3957 12.3001 11.7825 12.3001H14.1766C14.1348 11.5056 13.9257 10.7528 13.5911 10.0837C13.8351 10.0559 14.079 10.0315 14.323 10.0106L21.9654 14.6524C23.3559 15.4888 23.3559 17.5066 21.9654 18.3534ZM0 27.8359V19.2943C0.836378 17.7157 1.96549 16.2416 3.3246 14.9661H5.52009C5.90692 14.9661 6.22056 15.2797 6.19965 15.677C6.17874 16.0429 5.85465 16.3148 5.48873 16.3148H3.12596V17.6216H5.48873C5.83374 17.6216 6.17874 17.9143 6.19965 18.2698C6.22056 18.6566 5.90692 18.9807 5.52009 18.9807H3.12596C3.27233 21.908 5.68737 24.2394 8.65651 24.2394C8.75061 24.2394 8.8447 24.229 8.94925 24.229L7.83059 25.4313V26.9263L7.7365 26.9786H6.79557C5.91738 26.9786 5.196 27.679 5.15418 28.5468L3.28278 29.6863C1.84003 30.5541 0 29.5191 0 27.8359ZM4.86145 13.6488C5.27964 13.3352 5.71177 13.0389 6.15783 12.7601C6.17874 12.8124 6.19965 12.8751 6.19965 12.9379C6.22056 13.3247 5.90692 13.6488 5.52009 13.6488H4.86145Z" fill="url(#paint3_linear_0_3)"/>
<path d="M29.4882 26L34.7682 8.72H39.6402L44.9202 26H41.5602L36.8562 10.76H37.4802L32.8482 26H29.4882ZM32.6562 22.4V19.352H41.7762V22.4H32.6562ZM46.1111 26V8.72H49.3751V26H46.1111ZM59.1886 26.36C57.4606 26.36 55.9686 25.984 54.7126 25.232C53.4646 24.48 52.5006 23.428 51.8206 22.076C51.1486 20.724 50.8126 19.152 50.8126 17.36C50.8126 15.568 51.1486 13.996 51.8206 12.644C52.5006 11.292 53.4646 10.24 54.7126 9.488C55.9686 8.736 57.4606 8.36 59.1886 8.36C61.1726 8.36 62.8366 8.852 64.1806 9.836C65.5326 10.82 66.4846 12.152 67.0366 13.832L63.7486 14.744C63.4286 13.696 62.8886 12.884 62.1286 12.308C61.3686 11.724 60.3886 11.432 59.1886 11.432C58.0926 11.432 57.1766 11.676 56.4406 12.164C55.7126 12.652 55.1646 13.34 54.7966 14.228C54.4286 15.116 54.2446 16.16 54.2446 17.36C54.2446 18.56 54.4286 19.604 54.7966 20.492C55.1646 21.38 55.7126 22.068 56.4406 22.556C57.1766 23.044 58.0926 23.288 59.1886 23.288C60.3886 23.288 61.3686 22.996 62.1286 22.412C62.8886 21.828 63.4286 21.016 63.7486 19.976L67.0366 20.888C66.4846 22.568 65.5326 23.9 64.1806 24.884C62.8366 25.868 61.1726 26.36 59.1886 26.36ZM72.0789 26.36C71.1509 26.36 70.3629 26.184 69.7149 25.832C69.0749 25.472 68.5869 24.996 68.2509 24.404C67.9229 23.804 67.7589 23.144 67.7589 22.424C67.7589 21.824 67.8509 21.276 68.0349 20.78C68.2189 20.284 68.5149 19.848 68.9229 19.472C69.3389 19.088 69.8949 18.768 70.5909 18.512C71.0709 18.336 71.6429 18.18 72.3069 18.044C72.9709 17.908 73.7229 17.78 74.5629 17.66C75.4029 17.532 76.3269 17.392 77.3349 17.24L76.1589 17.888C76.1589 17.12 75.9749 16.556 75.6069 16.196C75.2389 15.836 74.6229 15.656 73.7589 15.656C73.2789 15.656 72.7789 15.772 72.2589 16.004C71.7389 16.236 71.3749 16.648 71.1669 17.24L68.2149 16.304C68.5429 15.232 69.1589 14.36 70.0629 13.688C70.9669 13.016 72.1989 12.68 73.7589 12.68C74.9029 12.68 75.9189 12.856 76.8069 13.208C77.6949 13.56 78.3669 14.168 78.8229 15.032C79.0789 15.512 79.2309 15.992 79.2789 16.472C79.3269 16.952 79.3509 17.488 79.3509 18.08V26H76.4949V23.336L76.9029 23.888C76.2709 24.76 75.5869 25.392 74.8509 25.784C74.1229 26.168 73.1989 26.36 72.0789 26.36ZM72.7749 23.792C73.3749 23.792 73.8789 23.688 74.2869 23.48C74.7029 23.264 75.0309 23.02 75.2709 22.748C75.5189 22.476 75.6869 22.248 75.7749 22.064C75.9429 21.712 76.0389 21.304 76.0629 20.84C76.0949 20.368 76.1109 19.976 76.1109 19.664L77.0709 19.904C76.1029 20.064 75.3189 20.2 74.7189 20.312C74.1189 20.416 73.6349 20.512 73.2669 20.6C72.8989 20.688 72.5749 20.784 72.2949 20.888C71.9749 21.016 71.7149 21.156 71.5149 21.308C71.3229 21.452 71.1789 21.612 71.0829 21.788C70.9949 21.964 70.9509 22.16 70.9509 22.376C70.9509 22.672 71.0229 22.928 71.1669 23.144C71.3189 23.352 71.5309 23.512 71.8029 23.624C72.0749 23.736 72.3989 23.792 72.7749 23.792ZM86.3351 26.36C84.7031 26.36 83.3831 25.992 82.3751 25.256C81.3751 24.512 80.7671 23.464 80.5511 22.112L83.8871 21.608C84.0231 22.216 84.3231 22.692 84.7871 23.036C85.2591 23.38 85.8551 23.552 86.5751 23.552C87.1671 23.552 87.6231 23.44 87.9431 23.216C88.2631 22.984 88.4231 22.664 88.4231 22.256C88.4231 22 88.3591 21.796 88.2311 21.644C88.1031 21.484 87.8151 21.328 87.3671 21.176C86.9271 21.024 86.2391 20.824 85.3031 20.576C84.2471 20.304 83.4031 20 82.7711 19.664C82.1391 19.328 81.6831 18.928 81.4031 18.464C81.1231 17.992 80.9831 17.424 80.9831 16.76C80.9831 15.928 81.1951 15.208 81.6191 14.6C82.0431 13.984 82.6391 13.512 83.4071 13.184C84.1831 12.848 85.0951 12.68 86.1431 12.68C87.1591 12.68 88.0591 12.836 88.8431 13.148C89.6271 13.46 90.2591 13.904 90.7391 14.48C91.2271 15.056 91.5271 15.736 91.6391 16.52L88.3031 17.12C88.2471 16.64 88.0391 16.26 87.6791 15.98C87.3191 15.7 86.8311 15.536 86.2151 15.488C85.6151 15.448 85.1311 15.528 84.7631 15.728C84.4031 15.928 84.2231 16.216 84.2231 16.592C84.2231 16.816 84.2991 17.004 84.4511 17.156C84.6111 17.308 84.9351 17.464 85.4231 17.624C85.9191 17.784 86.6711 17.992 87.6791 18.248C88.6631 18.504 89.4511 18.804 90.0431 19.148C90.6431 19.484 91.0791 19.892 91.3511 20.372C91.6231 20.844 91.7591 21.416 91.7591 22.088C91.7591 23.416 91.2791 24.46 90.3191 25.22C89.3591 25.98 88.0311 26.36 86.3351 26.36ZM100.972 26C100.076 26.168 99.1961 26.24 98.3321 26.216C97.4761 26.2 96.7081 26.052 96.0281 25.772C95.3561 25.484 94.8441 25.024 94.4921 24.392C94.1721 23.8 94.0041 23.2 93.9881 22.592C93.9721 21.976 93.9641 21.28 93.9641 20.504V9.44H97.2281V20.312C97.2281 20.816 97.2321 21.272 97.2401 21.68C97.2561 22.08 97.3401 22.4 97.4921 22.64C97.7801 23.096 98.2401 23.344 98.8721 23.384C99.5041 23.424 100.204 23.392 100.972 23.288V26ZM91.7561 15.56V13.04H100.972V15.56H91.7561ZM102.66 26V13.04H105.54V16.208L105.228 15.8C105.396 15.352 105.62 14.944 105.9 14.576C106.18 14.208 106.524 13.904 106.932 13.664C107.244 13.472 107.584 13.324 107.952 13.22C108.32 13.108 108.7 13.04 109.092 13.016C109.484 12.984 109.876 12.992 110.268 13.04V16.088C109.908 15.976 109.488 15.94 109.008 15.98C108.536 16.012 108.108 16.12 107.724 16.304C107.34 16.48 107.016 16.716 106.752 17.012C106.488 17.3 106.288 17.644 106.152 18.044C106.016 18.436 105.948 18.88 105.948 19.376V26H102.66Z" fill="white"/>
<defs>
<linearGradient id="paint0_linear_0_3" x1="16.5285" y1="-7.8157" x2="45.68" y2="21.3358" gradientUnits="userSpaceOnUse">
<stop stop-color="#FD6D6D"/>
<stop offset="1" stop-color="#F97535"/>
</linearGradient>
<linearGradient id="paint1_linear_0_3" x1="-16.282" y1="4.72432" x2="0.389741" y2="-11.0819" gradientUnits="userSpaceOnUse">
<stop stop-color="white"/>
<stop offset="0.987" stop-color="#D937BE"/>
<stop offset="1" stop-color="#D837BF"/>
</linearGradient>
<linearGradient id="paint2_linear_0_3" x1="14.4576" y1="-4.68138" x2="22.8076" y2="21.4645" gradientUnits="userSpaceOnUse">
<stop stop-color="#FD6D6D"/>
<stop offset="0.5" stop-color="#71381D"/>
<stop offset="1" stop-color="#F97535"/>
</linearGradient>
<linearGradient id="paint3_linear_0_3" x1="6.15281" y1="-7.21361" x2="25.248" y2="16.2306" gradientUnits="userSpaceOnUse">
<stop stop-color="#FD6D6D"/>
<stop offset="1"/>
</linearGradient>
</defs>
</svg>
