<svg width="82" height="19" viewBox="0 0 82 19" fill="none" xmlns="http://www.w3.org/2000/svg">
<path d="M0.48824 18L5.76824 0.719999H10.6402L15.9202 18H12.5602L7.85624 2.76H8.48024L3.84824 18H0.48824ZM3.65624 14.4V11.352H12.7762V14.4H3.65624ZM17.1111 18V0.719999H20.3751V18H17.1111ZM30.1886 18.36C28.4606 18.36 26.9686 17.984 25.7126 17.232C24.4646 16.48 23.5006 15.428 22.8206 14.076C22.1486 12.724 21.8126 11.152 21.8126 9.36C21.8126 7.568 22.1486 5.996 22.8206 4.644C23.5006 3.292 24.4646 2.24 25.7126 1.488C26.9686 0.736 28.4606 0.36 30.1886 0.36C32.1726 0.36 33.8366 0.851999 35.1806 1.836C36.5326 2.82 37.4846 4.152 38.0366 5.832L34.7486 6.744C34.4286 5.696 33.8886 4.884 33.1286 4.308C32.3686 3.724 31.3886 3.432 30.1886 3.432C29.0926 3.432 28.1766 3.676 27.4406 4.164C26.7126 4.652 26.1646 5.34 25.7966 6.228C25.4286 7.116 25.2446 8.16 25.2446 9.36C25.2446 10.56 25.4286 11.604 25.7966 12.492C26.1646 13.38 26.7126 14.068 27.4406 14.556C28.1766 15.044 29.0926 15.288 30.1886 15.288C31.3886 15.288 32.3686 14.996 33.1286 14.412C33.8886 13.828 34.4286 13.016 34.7486 11.976L38.0366 12.888C37.4846 14.568 36.5326 15.9 35.1806 16.884C33.8366 17.868 32.1726 18.36 30.1886 18.36ZM43.0789 18.36C42.1509 18.36 41.3629 18.184 40.7149 17.832C40.0749 17.472 39.5869 16.996 39.2509 16.404C38.9229 15.804 38.7589 15.144 38.7589 14.424C38.7589 13.824 38.8509 13.276 39.0349 12.78C39.2189 12.284 39.5149 11.848 39.9229 11.472C40.3389 11.088 40.8949 10.768 41.5909 10.512C42.0709 10.336 42.6429 10.18 43.3069 10.044C43.9709 9.908 44.7229 9.78 45.5629 9.66C46.4029 9.532 47.3269 9.392 48.3349 9.24L47.1589 9.888C47.1589 9.12 46.9749 8.556 46.6069 8.196C46.2389 7.836 45.6229 7.656 44.7589 7.656C44.2789 7.656 43.7789 7.772 43.2589 8.004C42.7389 8.236 42.3749 8.648 42.1669 9.24L39.2149 8.304C39.5429 7.232 40.1589 6.36 41.0629 5.688C41.9669 5.016 43.1989 4.68 44.7589 4.68C45.9029 4.68 46.9189 4.856 47.8069 5.208C48.6949 5.56 49.3669 6.168 49.8229 7.032C50.0789 7.512 50.2309 7.992 50.2789 8.472C50.3269 8.952 50.3509 9.488 50.3509 10.08V18H47.4949V15.336L47.9029 15.888C47.2709 16.76 46.5869 17.392 45.8509 17.784C45.1229 18.168 44.1989 18.36 43.0789 18.36ZM43.7749 15.792C44.3749 15.792 44.8789 15.688 45.2869 15.48C45.7029 15.264 46.0309 15.02 46.2709 14.748C46.5189 14.476 46.6869 14.248 46.7749 14.064C46.9429 13.712 47.0389 13.304 47.0629 12.84C47.0949 12.368 47.1109 11.976 47.1109 11.664L48.0709 11.904C47.1029 12.064 46.3189 12.2 45.7189 12.312C45.1189 12.416 44.6349 12.512 44.2669 12.6C43.8989 12.688 43.5749 12.784 43.2949 12.888C42.9749 13.016 42.7149 13.156 42.5149 13.308C42.3229 13.452 42.1789 13.612 42.0829 13.788C41.9949 13.964 41.9509 14.16 41.9509 14.376C41.9509 14.672 42.0229 14.928 42.1669 15.144C42.3189 15.352 42.5309 15.512 42.8029 15.624C43.0749 15.736 43.3989 15.792 43.7749 15.792ZM57.3351 18.36C55.7031 18.36 54.3831 17.992 53.3751 17.256C52.3751 16.512 51.7671 15.464 51.5511 14.112L54.8871 13.608C55.0231 14.216 55.3231 14.692 55.7871 15.036C56.2591 15.38 56.8551 15.552 57.5751 15.552C58.1671 15.552 58.6231 15.44 58.9431 15.216C59.2631 14.984 59.4231 14.664 59.4231 14.256C59.4231 14 59.3591 13.796 59.2311 13.644C59.1031 13.484 58.8151 13.328 58.3671 13.176C57.9271 13.024 57.2391 12.824 56.3031 12.576C55.2471 12.304 54.4031 12 53.7711 11.664C53.1391 11.328 52.6831 10.928 52.4031 10.464C52.1231 9.992 51.9831 9.424 51.9831 8.76C51.9831 7.928 52.1951 7.208 52.6191 6.6C53.0431 5.984 53.6391 5.512 54.4071 5.184C55.1831 4.848 56.0951 4.68 57.1431 4.68C58.1591 4.68 59.0591 4.836 59.8431 5.148C60.6271 5.46 61.2591 5.904 61.7391 6.48C62.2271 7.056 62.5271 7.736 62.6391 8.52L59.3031 9.12C59.2471 8.64 59.0391 8.26 58.6791 7.98C58.3191 7.7 57.8311 7.536 57.2151 7.488C56.6151 7.448 56.1311 7.528 55.7631 7.728C55.4031 7.928 55.2231 8.216 55.2231 8.592C55.2231 8.816 55.2991 9.004 55.4511 9.156C55.6111 9.308 55.9351 9.464 56.4231 9.624C56.9191 9.784 57.6711 9.992 58.6791 10.248C59.6631 10.504 60.4511 10.804 61.0431 11.148C61.6431 11.484 62.0791 11.892 62.3511 12.372C62.6231 12.844 62.7591 13.416 62.7591 14.088C62.7591 15.416 62.2791 16.46 61.3191 17.22C60.3591 17.98 59.0311 18.36 57.3351 18.36ZM71.9721 18C71.0761 18.168 70.1961 18.24 69.3321 18.216C68.4761 18.2 67.7081 18.052 67.0281 17.772C66.3561 17.484 65.8441 17.024 65.4921 16.392C65.1721 15.8 65.0041 15.2 64.9881 14.592C64.9721 13.976 64.9641 13.28 64.9641 12.504V1.44H68.2281V12.312C68.2281 12.816 68.2321 13.272 68.2401 13.68C68.2561 14.08 68.3401 14.4 68.4921 14.64C68.7801 15.096 69.2401 15.344 69.8721 15.384C70.5041 15.424 71.2041 15.392 71.9721 15.288V18ZM62.7561 7.56V5.04H71.9721V7.56H62.7561ZM73.6601 18V5.04H76.5401V8.208L76.2281 7.8C76.3961 7.352 76.6201 6.944 76.9001 6.576C77.1801 6.208 77.5241 5.904 77.9321 5.664C78.2441 5.472 78.5841 5.324 78.9521 5.22C79.3201 5.108 79.7001 5.04 80.0921 5.016C80.4841 4.984 80.8761 4.992 81.2681 5.04V8.088C80.9081 7.976 80.4881 7.94 80.0081 7.98C79.5361 8.012 79.1081 8.12 78.7241 8.304C78.3401 8.48 78.0161 8.716 77.7521 9.012C77.4881 9.3 77.2881 9.644 77.1521 10.044C77.0161 10.436 76.9481 10.88 76.9481 11.376V18H73.6601Z" fill="white"/>
</svg>
